P2
3
3
10
5
0
0
0
5
0
0
0
5
