P3
3 3
255
255 255 255 200 0 0 255 200 255
0 200 0 255 255 255 0 0 0 
255 255 200 0 0 200 200 255 255
