P3
4 4
255
0 0 0 0 0 0 0 0 0 255 0 255
0 0 0 0 255 170 0 0 0 0 0 0
0 0 0 0 0 0 0 255 207 0 0 0
255 0 255 0 0 0 0 0 0 0 0 0
